# xmcd
#
# Track frame offsets:
#	150
#	9631
#	20373
#	30630
#	41601
#	52470
#	65888
#	80195
#	90395
#	99528
#	108995
#	118379
#	129000
#	140051
#	150848
#	163800
#	176446
#	190278
#	205233
#	215171
#	228665
#	245771
#	257586
#	268127
#
# Disc length: 3708 seconds
#
# Revision: 2
# Processed by: cddbd v1.5.1PL0 Copyright (c) Steve Scherf et al.
# Submitted via: MusicWizard 7.1.1b
#
DISCID=650e7a18
DTITLE=Waylon Jennings - Heartaches By The Number And Other Country Favorites
DYEAR=1972
DGENRE=Country
TTITLE0=Heartaches By The Number
TTITLE1=Tiger By The Tail
TTITLE2=Foolin'  Round
TTITLE3=(That's What You Get) For Lovin' Me
TTITLE4=You're Gonna Wonder About Me
TTITLE5=Singer Of Sad Songs
TTITLE6=Folsom Prion Blues
TTITLE7=Busted
TTITLE8=Time To Bum Again
TTITLE9=Leavin' Town
TTITLE10=Brown-Eyed Handsome Man
TTITLE11=Only Daddy That'll Walk The Line
TTITLE12=Anita You're Dreaming
TTITLE13=That's What You Get For Loving Me
TTITLE14=Too Far Gone
TTITLE15=Today I Started Loving You Again
TTITLE16=Gentle On My Mind
TTITLE17=Tonight The Bottle Let Me Down
TTITLE18=Ruby Don't Take Your Love To Town
TTITLE19=Loving Her Was Easier (Than Anything I'll Ever Do Again)
TTITLE20=Sunday Morning Coming Down
TTITLE21=For The Kids
TTITLE22=The Taker
TTITLE23=I'd Be A Legend In My Time
EXTD=(c)1972  RCA International, Katalog: INTS 1384
EXTT0=
EXTT1=
EXTT2=
EXTT3=
EXTT4=
EXTT5=
EXTT6=
EXTT7=
EXTT8=
EXTT9=
EXTT10=
EXTT11=
EXTT12=
EXTT13=
EXTT14=
EXTT15=
EXTT16=
EXTT17=
EXTT18=
EXTT19=
EXTT20=
EXTT21=
EXTT22=
EXTT23=
PLAYORDER=
